<svg xmlns="http://www.w3.org/2000/svg" id="Capa_1" height="512" viewBox="0 0 512 512" width="512"><g><path d="m507.499 216.499-91-90c-2.699-2.999-6.599-4.499-10.499-4.499h-300c-3.9 0-7.8 1.5-10.499 4.499l-91 90c-.3.3-.601.601-.601.901l252.1 249.6 252.1-249.6c0-.301-.3-.601-.601-.901z" fill="#ffbe40"></path><path d="m416.499 126.499c-2.699-2.999-6.599-4.499-10.499-4.499h-150v345l252.1-249.6c0-.3-.3-.601-.601-.901z" fill="#ff9f40"></path><g><path d="m406 482h-300c-8.291 0-15-6.709-15-15v-452c0-8.291 6.709-15 15-15h300c8.291 0 15 6.709 15 15v452c0 8.291-6.709 15-15 15z" fill="#f3f5f9"></path></g><path d="m406 0h-150v482h150c8.291 0 15-6.709 15-15v-452c0-8.291-6.709-15-15-15z" fill="#e1e6f0"></path><g><path d="m512 227v270c0 8.284-6.716 15-15 15h-482c-8.284 0-15-6.716-15-15v-270c0-3.6 1.201-7.2 3.9-9.6l242.225 210.964c5.654 4.945 14.095 4.945 19.749 0l242.226-210.964c2.699 2.4 3.9 6 3.9 9.6z" fill="#ffdf40"></path></g><g id="Mail_1_"><g><g><g><path d="m346 212h-180c-8.291 0-15-6.709-15-15s6.709-15 15-15h180c8.291 0 15 6.709 15 15s-6.709 15-15 15z" fill="#cfd7e6"></path></g></g><g><g><path d="m316 272h-120c-8.291 0-15-6.709-15-15s6.709-15 15-15h120c8.291 0 15 6.709 15 15s-6.709 15-15 15z" fill="#cfd7e6"></path></g></g></g></g><path d="m497 512c8.284 0 15-6.716 15-15v-270c0-3.6-1.201-7.2-3.9-9.6l-242.227 210.963c-2.827 2.472-6.35 3.71-9.873 3.71v79.927z" fill="#ffbe40"></path><g fill="#b8c4d9"><path d="m316 242h-60v30h60c8.291 0 15-6.709 15-15s-6.709-15-15-15z"></path><path d="m346 182h-90v30h90c8.291 0 15-6.709 15-15s-6.709-15-15-15z"></path></g></g></svg>